
<svg width="146" height="19" viewBox="0 0 152 19" fill="white" xmlns="http://www.w3.org/2000/svg">
<path d="M0.15625 18V0.867188H3.78906V15H10.7383V18H0.15625ZM24.2148 18L22.9727 13.9219H16.7266L15.4844 18H11.5703L17.6172 0.796875H22.0586L28.1289 18H24.2148ZM22.1055 10.875C20.957 7.17969 20.3086 5.08984 20.1602 4.60547C20.0195 4.12109 19.918 3.73828 19.8555 3.45703C19.5977 4.45703 18.8594 6.92969 17.6406 10.875H22.1055ZM37.5508 18L33.4258 4.55859H33.3203C33.4688 7.29297 33.543 9.11719 33.543 10.0312V18H30.2969V0.867188H35.2422L39.2969 13.9688H39.3672L43.668 0.867188H48.6133V18H45.2266V9.89062C45.2266 9.50781 45.2305 9.06641 45.2383 8.56641C45.2539 8.06641 45.3086 6.73828 45.4023 4.58203H45.2969L40.8789 18H37.5508ZM56.5703 8.92969H57.7656C58.8828 8.92969 59.7188 8.71094 60.2734 8.27344C60.8281 7.82812 61.1055 7.18359 61.1055 6.33984C61.1055 5.48828 60.8711 4.85938 60.4023 4.45312C59.9414 4.04688 59.2148 3.84375 58.2227 3.84375H56.5703V8.92969ZM64.7734 6.21094C64.7734 8.05469 64.1953 9.46484 63.0391 10.4414C61.8906 11.418 60.2539 11.9062 58.1289 11.9062H56.5703V18H52.9375V0.867188H58.4102C60.4883 0.867188 62.0664 1.31641 63.1445 2.21484C64.2305 3.10547 64.7734 4.4375 64.7734 6.21094ZM80.6758 18V0.867188H82.668V18H80.6758ZM100.762 18H98.4883L89.125 3.62109H89.0312C89.1562 5.30859 89.2188 6.85547 89.2188 8.26172V18H87.3789V0.867188H89.6289L98.9688 15.1875H99.0625C99.0469 14.9766 99.0117 14.3008 98.957 13.1602C98.9023 12.0117 98.8828 11.1914 98.8984 10.6992V0.867188H100.762V18ZM111.707 0.867188H116.547C118.82 0.867188 120.465 1.20703 121.48 1.88672C122.496 2.56641 123.004 3.64062 123.004 5.10938C123.004 6.125 122.719 6.96484 122.148 7.62891C121.586 8.28516 120.762 8.71094 119.676 8.90625V9.02344C122.277 9.46875 123.578 10.8359 123.578 13.125C123.578 14.6562 123.059 15.8516 122.02 16.7109C120.988 17.5703 119.543 18 117.684 18H111.707V0.867188ZM113.699 8.20312H116.98C118.387 8.20312 119.398 7.98438 120.016 7.54688C120.633 7.10156 120.941 6.35547 120.941 5.30859C120.941 4.34766 120.598 3.65625 119.91 3.23438C119.223 2.80469 118.129 2.58984 116.629 2.58984H113.699V8.20312ZM113.699 9.89062V16.3008H117.273C118.656 16.3008 119.695 16.0352 120.391 15.5039C121.094 14.9648 121.445 14.125 121.445 12.9844C121.445 11.9219 121.086 11.1406 120.367 10.6406C119.656 10.1406 118.57 9.89062 117.109 9.89062H113.699ZM138.062 11.5664C138.062 13.6602 137.535 15.2969 136.48 16.4766C135.426 17.6484 133.969 18.2344 132.109 18.2344C130.961 18.2344 129.941 17.9648 129.051 17.4258C128.16 16.8867 127.473 16.1133 126.988 15.1055C126.504 14.0977 126.262 12.918 126.262 11.5664C126.262 9.47266 126.785 7.84375 127.832 6.67969C128.879 5.50781 130.332 4.92188 132.191 4.92188C133.988 4.92188 135.414 5.51953 136.469 6.71484C137.531 7.91016 138.062 9.52734 138.062 11.5664ZM128.277 11.5664C128.277 13.207 128.605 14.457 129.262 15.3164C129.918 16.1758 130.883 16.6055 132.156 16.6055C133.43 16.6055 134.395 16.1797 135.051 15.3281C135.715 14.4688 136.047 13.2148 136.047 11.5664C136.047 9.93359 135.715 8.69531 135.051 7.85156C134.395 7 133.422 6.57422 132.133 6.57422C130.859 6.57422 129.898 6.99219 129.25 7.82812C128.602 8.66406 128.277 9.91016 128.277 11.5664ZM144.578 11.4258L140.113 5.15625H142.328L145.715 10.0781L149.09 5.15625H151.281L146.816 11.4258L151.516 18H149.312L145.715 12.7969L142.082 18H139.879L144.578 11.4258Z" fill="#FFFFF"/>
</svg>